<svg xmlns="http://www.w3.org/2000/svg"
         width="474" height="356"
         viewBox="0 0 474 356">
<polygon points="17.32,10.00 0.00,20.00 -17.32,10.00 -17.32,-10.00 -0.00,-20.00 17.32,-10.00" fill="#2d0e14" stroke="#2d0e14" stroke-width="1"/>
<polygon points="51.96,10.00 34.64,20.00 17.32,10.00 17.32,-10.00 34.64,-20.00 51.96,-10.00" fill="#591e4e" stroke="#591e4e" stroke-width="1"/>
<polygon points="86.60,10.00 69.28,20.00 51.96,10.00 51.96,-10.00 69.28,-20.00 86.60,-10.00" fill="#791826" stroke="#791826" stroke-width="1"/>
<polygon points="121.24,10.00 103.92,20.00 86.60,10.00 86.60,-10.00 103.92,-20.00 121.24,-10.00" fill="#da5836" stroke="#da5836" stroke-width="1"/>
<polygon points="155.88,10.00 138.56,20.00 121.24,10.00 121.24,-10.00 138.56,-20.00 155.88,-10.00" fill="#ef7531" stroke="#ef7531" stroke-width="1"/>
<polygon points="190.53,10.00 173.21,20.00 155.88,10.00 155.88,-10.00 173.21,-20.00 190.53,-10.00" fill="#f08330" stroke="#f08330" stroke-width="1"/>
<polygon points="225.17,10.00 207.85,20.00 190.53,10.00 190.53,-10.00 207.85,-20.00 225.17,-10.00" fill="#f49536" stroke="#f49536" stroke-width="1"/>
<polygon points="259.81,10.00 242.49,20.00 225.17,10.00 225.17,-10.00 242.49,-20.00 259.81,-10.00" fill="#f38e32" stroke="#f38e32" stroke-width="1"/>
<polygon points="294.45,10.00 277.13,20.00 259.81,10.00 259.81,-10.00 277.13,-20.00 294.45,-10.00" fill="#f38c36" stroke="#f38c36" stroke-width="1"/>
<polygon points="329.09,10.00 311.77,20.00 294.45,10.00 294.45,-10.00 311.77,-20.00 329.09,-10.00" fill="#ea5d2d" stroke="#ea5d2d" stroke-width="1"/>
<polygon points="363.73,10.00 346.41,20.00 329.09,10.00 329.09,-10.00 346.41,-20.00 363.73,-10.00" fill="#ec5e2f" stroke="#ec5e2f" stroke-width="1"/>
<polygon points="398.37,10.00 381.05,20.00 363.73,10.00 363.73,-10.00 381.05,-20.00 398.37,-10.00" fill="#db3f2e" stroke="#db3f2e" stroke-width="1"/>
<polygon points="433.01,10.00 415.69,20.00 398.37,10.00 398.37,-10.00 415.69,-20.00 433.01,-10.00" fill="#d1352f" stroke="#d1352f" stroke-width="1"/>
<polygon points="467.65,10.00 450.33,20.00 433.01,10.00 433.01,-10.00 450.33,-20.00 467.65,-10.00" fill="#b1242c" stroke="#b1242c" stroke-width="1"/>
<polygon points="34.64,40.00 17.32,50.00 -0.00,40.00 0.00,20.00 17.32,10.00 34.64,20.00" fill="#1e183d" stroke="#1e183d" stroke-width="1"/>
<polygon points="69.28,40.00 51.96,50.00 34.64,40.00 34.64,20.00 51.96,10.00 69.28,20.00" fill="#2f1b4a" stroke="#2f1b4a" stroke-width="1"/>
<polygon points="103.92,40.00 86.60,50.00 69.28,40.00 69.28,20.00 86.60,10.00 103.92,20.00" fill="#331028" stroke="#331028" stroke-width="1"/>
<polygon points="138.56,40.00 121.24,50.00 103.92,40.00 103.92,20.00 121.24,10.00 138.56,20.00" fill="#e86430" stroke="#e86430" stroke-width="1"/>
<polygon points="173.21,40.00 155.88,50.00 138.56,40.00 138.56,20.00 155.88,10.00 173.21,20.00" fill="#ee7530" stroke="#ee7530" stroke-width="1"/>
<polygon points="207.85,40.00 190.53,50.00 173.21,40.00 173.21,20.00 190.53,10.00 207.85,20.00" fill="#ed762f" stroke="#ed762f" stroke-width="1"/>
<polygon points="242.49,40.00 225.17,50.00 207.85,40.00 207.85,20.00 225.17,10.00 242.49,20.00" fill="#f08b35" stroke="#f08b35" stroke-width="1"/>
<polygon points="277.13,40.00 259.81,50.00 242.49,40.00 242.49,20.00 259.81,10.00 277.13,20.00" fill="#ed7537" stroke="#ed7537" stroke-width="1"/>
<polygon points="311.77,40.00 294.45,50.00 277.13,40.00 277.13,20.00 294.45,10.00 311.77,20.00" fill="#ed6c2e" stroke="#ed6c2e" stroke-width="1"/>
<polygon points="346.41,40.00 329.09,50.00 311.77,40.00 311.77,20.00 329.09,10.00 346.41,20.00" fill="#e8512d" stroke="#e8512d" stroke-width="1"/>
<polygon points="381.05,40.00 363.73,50.00 346.41,40.00 346.41,20.00 363.73,10.00 381.05,20.00" fill="#db432c" stroke="#db432c" stroke-width="1"/>
<polygon points="415.69,40.00 398.37,50.00 381.05,40.00 381.05,20.00 398.37,10.00 415.69,20.00" fill="#d73e2e" stroke="#d73e2e" stroke-width="1"/>
<polygon points="450.33,40.00 433.01,50.00 415.69,40.00 415.69,20.00 433.01,10.00 450.33,20.00" fill="#c0282c" stroke="#c0282c" stroke-width="1"/>
<polygon points="484.97,40.00 467.65,50.00 450.33,40.00 450.33,20.00 467.65,10.00 484.97,20.00" fill="#a82129" stroke="#a82129" stroke-width="1"/>
<polygon points="17.32,70.00 0.00,80.00 -17.32,70.00 -17.32,50.00 -0.00,40.00 17.32,50.00" fill="#2e62a0" stroke="#2e62a0" stroke-width="1"/>
<polygon points="51.96,70.00 34.64,80.00 17.32,70.00 17.32,50.00 34.64,40.00 51.96,50.00" fill="#42538b" stroke="#42538b" stroke-width="1"/>
<polygon points="86.60,70.00 69.28,80.00 51.96,70.00 51.96,50.00 69.28,40.00 86.60,50.00" fill="#382c70" stroke="#382c70" stroke-width="1"/>
<polygon points="121.24,70.00 103.92,80.00 86.60,70.00 86.60,50.00 103.92,40.00 121.24,50.00" fill="#26101b" stroke="#26101b" stroke-width="1"/>
<polygon points="155.88,70.00 138.56,80.00 121.24,70.00 121.24,50.00 138.56,40.00 155.88,50.00" fill="#ec6f38" stroke="#ec6f38" stroke-width="1"/>
<polygon points="190.53,70.00 173.21,80.00 155.88,70.00 155.88,50.00 173.21,40.00 190.53,50.00" fill="#ee7630" stroke="#ee7630" stroke-width="1"/>
<polygon points="225.17,70.00 207.85,80.00 190.53,70.00 190.53,50.00 207.85,40.00 225.17,50.00" fill="#ee762e" stroke="#ee762e" stroke-width="1"/>
<polygon points="259.81,70.00 242.49,80.00 225.17,70.00 225.17,50.00 242.49,40.00 259.81,50.00" fill="#ee8337" stroke="#ee8337" stroke-width="1"/>
<polygon points="294.45,70.00 277.13,80.00 259.81,70.00 259.81,50.00 277.13,40.00 294.45,50.00" fill="#ec7947" stroke="#ec7947" stroke-width="1"/>
<polygon points="329.09,70.00 311.77,80.00 294.45,70.00 294.45,50.00 311.77,40.00 329.09,50.00" fill="#ec6838" stroke="#ec6838" stroke-width="1"/>
<polygon points="363.73,70.00 346.41,80.00 329.09,70.00 329.09,50.00 346.41,40.00 363.73,50.00" fill="#e7522e" stroke="#e7522e" stroke-width="1"/>
<polygon points="398.37,70.00 381.05,80.00 363.73,70.00 363.73,50.00 381.05,40.00 398.37,50.00" fill="#e24d2f" stroke="#e24d2f" stroke-width="1"/>
<polygon points="433.01,70.00 415.69,80.00 398.37,70.00 398.37,50.00 415.69,40.00 433.01,50.00" fill="#d63b2d" stroke="#d63b2d" stroke-width="1"/>
<polygon points="467.65,70.00 450.33,80.00 433.01,70.00 433.01,50.00 450.33,40.00 467.65,50.00" fill="#cd302d" stroke="#cd302d" stroke-width="1"/>
<polygon points="34.64,100.00 17.32,110.00 -0.00,100.00 0.00,80.00 17.32,70.00 34.64,80.00" fill="#124775" stroke="#124775" stroke-width="1"/>
<polygon points="69.28,100.00 51.96,110.00 34.64,100.00 34.64,80.00 51.96,70.00 69.28,80.00" fill="#1d539a" stroke="#1d539a" stroke-width="1"/>
<polygon points="103.92,100.00 86.60,110.00 69.28,100.00 69.28,80.00 86.60,70.00 103.92,80.00" fill="#2b327a" stroke="#2b327a" stroke-width="1"/>
<polygon points="138.56,100.00 121.24,110.00 103.92,100.00 103.92,80.00 121.24,70.00 138.56,80.00" fill="#4f1415" stroke="#4f1415" stroke-width="1"/>
<polygon points="173.21,100.00 155.88,110.00 138.56,100.00 138.56,80.00 155.88,70.00 173.21,80.00" fill="#c75334" stroke="#c75334" stroke-width="1"/>
<polygon points="207.85,100.00 190.53,110.00 173.21,100.00 173.21,80.00 190.53,70.00 207.85,80.00" fill="#ea724d" stroke="#ea724d" stroke-width="1"/>
<polygon points="242.49,100.00 225.17,110.00 207.85,100.00 207.85,80.00 225.17,70.00 242.49,80.00" fill="#e66738" stroke="#e66738" stroke-width="1"/>
<polygon points="277.13,100.00 259.81,110.00 242.49,100.00 242.49,80.00 259.81,70.00 277.13,80.00" fill="#ee763b" stroke="#ee763b" stroke-width="1"/>
<polygon points="311.77,100.00 294.45,110.00 277.13,100.00 277.13,80.00 294.45,70.00 311.77,80.00" fill="#ec7750" stroke="#ec7750" stroke-width="1"/>
<polygon points="346.41,100.00 329.09,110.00 311.77,100.00 311.77,80.00 329.09,70.00 346.41,80.00" fill="#ec6e33" stroke="#ec6e33" stroke-width="1"/>
<polygon points="381.05,100.00 363.73,110.00 346.41,100.00 346.41,80.00 363.73,70.00 381.05,80.00" fill="#ed6e2f" stroke="#ed6e2f" stroke-width="1"/>
<polygon points="415.69,100.00 398.37,110.00 381.05,100.00 381.05,80.00 398.37,70.00 415.69,80.00" fill="#eb682e" stroke="#eb682e" stroke-width="1"/>
<polygon points="450.33,100.00 433.01,110.00 415.69,100.00 415.69,80.00 433.01,70.00 450.33,80.00" fill="#ea5d2f" stroke="#ea5d2f" stroke-width="1"/>
<polygon points="484.97,100.00 467.65,110.00 450.33,100.00 450.33,80.00 467.65,70.00 484.97,80.00" fill="#e85030" stroke="#e85030" stroke-width="1"/>
<polygon points="17.32,130.00 0.00,140.00 -17.32,130.00 -17.32,110.00 -0.00,100.00 17.32,110.00" fill="#2a6e85" stroke="#2a6e85" stroke-width="1"/>
<polygon points="51.96,130.00 34.64,140.00 17.32,130.00 17.32,110.00 34.64,100.00 51.96,110.00" fill="#326997" stroke="#326997" stroke-width="1"/>
<polygon points="86.60,130.00 69.28,140.00 51.96,130.00 51.96,110.00 69.28,100.00 86.60,110.00" fill="#1b507d" stroke="#1b507d" stroke-width="1"/>
<polygon points="121.24,130.00 103.92,140.00 86.60,130.00 86.60,110.00 103.92,100.00 121.24,110.00" fill="#233b79" stroke="#233b79" stroke-width="1"/>
<polygon points="155.88,130.00 138.56,140.00 121.24,130.00 121.24,110.00 138.56,100.00 155.88,110.00" fill="#322769" stroke="#322769" stroke-width="1"/>
<polygon points="190.53,130.00 173.21,140.00 155.88,130.00 155.88,110.00 173.21,100.00 190.53,110.00" fill="#854479" stroke="#854479" stroke-width="1"/>
<polygon points="225.17,130.00 207.85,140.00 190.53,130.00 190.53,110.00 207.85,100.00 225.17,110.00" fill="#c64d82" stroke="#c64d82" stroke-width="1"/>
<polygon points="259.81,130.00 242.49,140.00 225.17,130.00 225.17,110.00 242.49,100.00 259.81,110.00" fill="#e95b5f" stroke="#e95b5f" stroke-width="1"/>
<polygon points="294.45,130.00 277.13,140.00 259.81,130.00 259.81,110.00 277.13,100.00 294.45,110.00" fill="#ed795d" stroke="#ed795d" stroke-width="1"/>
<polygon points="329.09,130.00 311.77,140.00 294.45,130.00 294.45,110.00 311.77,100.00 329.09,110.00" fill="#ea746d" stroke="#ea746d" stroke-width="1"/>
<polygon points="363.73,130.00 346.41,140.00 329.09,130.00 329.09,110.00 346.41,100.00 363.73,110.00" fill="#ee7933" stroke="#ee7933" stroke-width="1"/>
<polygon points="398.37,130.00 381.05,140.00 363.73,130.00 363.73,110.00 381.05,100.00 398.37,110.00" fill="#f18b35" stroke="#f18b35" stroke-width="1"/>
<polygon points="433.01,130.00 415.69,140.00 398.37,130.00 398.37,110.00 415.69,100.00 433.01,110.00" fill="#ed7833" stroke="#ed7833" stroke-width="1"/>
<polygon points="467.65,130.00 450.33,140.00 433.01,130.00 433.01,110.00 450.33,100.00 467.65,110.00" fill="#ec6732" stroke="#ec6732" stroke-width="1"/>
<polygon points="34.64,160.00 17.32,170.00 -0.00,160.00 0.00,140.00 17.32,130.00 34.64,140.00" fill="#569ebe" stroke="#569ebe" stroke-width="1"/>
<polygon points="69.28,160.00 51.96,170.00 34.64,160.00 34.64,140.00 51.96,130.00 69.28,140.00" fill="#508dbc" stroke="#508dbc" stroke-width="1"/>
<polygon points="103.92,160.00 86.60,170.00 69.28,160.00 69.28,140.00 86.60,130.00 103.92,140.00" fill="#9195c6" stroke="#9195c6" stroke-width="1"/>
<polygon points="138.56,160.00 121.24,170.00 103.92,160.00 103.92,140.00 121.24,130.00 138.56,140.00" fill="#2d316d" stroke="#2d316d" stroke-width="1"/>
<polygon points="173.21,160.00 155.88,170.00 138.56,160.00 138.56,140.00 155.88,130.00 173.21,140.00" fill="#524895" stroke="#524895" stroke-width="1"/>
<polygon points="207.85,160.00 190.53,170.00 173.21,160.00 173.21,140.00 190.53,130.00 207.85,140.00" fill="#563c90" stroke="#563c90" stroke-width="1"/>
<polygon points="242.49,160.00 225.17,170.00 207.85,160.00 207.85,140.00 225.17,130.00 242.49,140.00" fill="#a7599e" stroke="#a7599e" stroke-width="1"/>
<polygon points="277.13,160.00 259.81,170.00 242.49,160.00 242.49,140.00 259.81,130.00 277.13,140.00" fill="#e85066" stroke="#e85066" stroke-width="1"/>
<polygon points="311.77,160.00 294.45,170.00 277.13,160.00 277.13,140.00 294.45,130.00 311.77,140.00" fill="#ea7782" stroke="#ea7782" stroke-width="1"/>
<polygon points="346.41,160.00 329.09,170.00 311.77,160.00 311.77,140.00 329.09,130.00 346.41,140.00" fill="#eb7860" stroke="#eb7860" stroke-width="1"/>
<polygon points="381.05,160.00 363.73,170.00 346.41,160.00 346.41,140.00 363.73,130.00 381.05,140.00" fill="#ee7931" stroke="#ee7931" stroke-width="1"/>
<polygon points="415.69,160.00 398.37,170.00 381.05,160.00 381.05,140.00 398.37,130.00 415.69,140.00" fill="#ee7c34" stroke="#ee7c34" stroke-width="1"/>
<polygon points="450.33,160.00 433.01,170.00 415.69,160.00 415.69,140.00 433.01,130.00 450.33,140.00" fill="#ed7439" stroke="#ed7439" stroke-width="1"/>
<polygon points="484.97,160.00 467.65,170.00 450.33,160.00 450.33,140.00 467.65,130.00 484.97,140.00" fill="#e96044" stroke="#e96044" stroke-width="1"/>
<polygon points="17.32,190.00 0.00,200.00 -17.32,190.00 -17.32,170.00 -0.00,160.00 17.32,170.00" fill="#345e75" stroke="#345e75" stroke-width="1"/>
<polygon points="51.96,190.00 34.64,200.00 17.32,190.00 17.32,170.00 34.64,160.00 51.96,170.00" fill="#183d62" stroke="#183d62" stroke-width="1"/>
<polygon points="86.60,190.00 69.28,200.00 51.96,190.00 51.96,170.00 69.28,160.00 86.60,170.00" fill="#3f457c" stroke="#3f457c" stroke-width="1"/>
<polygon points="121.24,190.00 103.92,200.00 86.60,190.00 86.60,170.00 103.92,160.00 121.24,170.00" fill="#6c4f8b" stroke="#6c4f8b" stroke-width="1"/>
<polygon points="155.88,190.00 138.56,200.00 121.24,190.00 121.24,170.00 138.56,160.00 155.88,170.00" fill="#ae87ba" stroke="#ae87ba" stroke-width="1"/>
<polygon points="190.53,190.00 173.21,200.00 155.88,190.00 155.88,170.00 173.21,160.00 190.53,170.00" fill="#c491bd" stroke="#c491bd" stroke-width="1"/>
<polygon points="225.17,190.00 207.85,200.00 190.53,190.00 190.53,170.00 207.85,160.00 225.17,170.00" fill="#5e347f" stroke="#5e347f" stroke-width="1"/>
<polygon points="259.81,190.00 242.49,200.00 225.17,190.00 225.17,170.00 242.49,160.00 259.81,170.00" fill="#b67ab0" stroke="#b67ab0" stroke-width="1"/>
<polygon points="294.45,190.00 277.13,200.00 259.81,190.00 259.81,170.00 277.13,160.00 294.45,170.00" fill="#e082b1" stroke="#e082b1" stroke-width="1"/>
<polygon points="329.09,190.00 311.77,200.00 294.45,190.00 294.45,170.00 311.77,160.00 329.09,170.00" fill="#ec919e" stroke="#ec919e" stroke-width="1"/>
<polygon points="363.73,190.00 346.41,200.00 329.09,190.00 329.09,170.00 346.41,160.00 363.73,170.00" fill="#ef8b69" stroke="#ef8b69" stroke-width="1"/>
<polygon points="398.37,190.00 381.05,200.00 363.73,190.00 363.73,170.00 381.05,160.00 398.37,170.00" fill="#e48e93" stroke="#e48e93" stroke-width="1"/>
<polygon points="433.01,190.00 415.69,200.00 398.37,190.00 398.37,170.00 415.69,160.00 433.01,170.00" fill="#dd81a6" stroke="#dd81a6" stroke-width="1"/>
<polygon points="467.65,190.00 450.33,200.00 433.01,190.00 433.01,170.00 450.33,160.00 467.65,170.00" fill="#d577ac" stroke="#d577ac" stroke-width="1"/>
<polygon points="34.64,220.00 17.32,230.00 -0.00,220.00 0.00,200.00 17.32,190.00 34.64,200.00" fill="#041811" stroke="#041811" stroke-width="1"/>
<polygon points="69.28,220.00 51.96,230.00 34.64,220.00 34.64,200.00 51.96,190.00 69.28,200.00" fill="#034e50" stroke="#034e50" stroke-width="1"/>
<polygon points="103.92,220.00 86.60,230.00 69.28,220.00 69.28,200.00 86.60,190.00 103.92,200.00" fill="#244083" stroke="#244083" stroke-width="1"/>
<polygon points="138.56,220.00 121.24,230.00 103.92,220.00 103.92,200.00 121.24,190.00 138.56,200.00" fill="#342155" stroke="#342155" stroke-width="1"/>
<polygon points="173.21,220.00 155.88,230.00 138.56,220.00 138.56,200.00 155.88,190.00 173.21,200.00" fill="#825394" stroke="#825394" stroke-width="1"/>
<polygon points="207.85,220.00 190.53,230.00 173.21,220.00 173.21,200.00 190.53,190.00 207.85,200.00" fill="#c18dba" stroke="#c18dba" stroke-width="1"/>
<polygon points="242.49,220.00 225.17,230.00 207.85,220.00 207.85,200.00 225.17,190.00 242.49,200.00" fill="#d8aed0" stroke="#d8aed0" stroke-width="1"/>
<polygon points="277.13,220.00 259.81,230.00 242.49,220.00 242.49,200.00 259.81,190.00 277.13,200.00" fill="#96b7ca" stroke="#96b7ca" stroke-width="1"/>
<polygon points="311.77,220.00 294.45,230.00 277.13,220.00 277.13,200.00 294.45,190.00 311.77,200.00" fill="#67839a" stroke="#67839a" stroke-width="1"/>
<polygon points="346.41,220.00 329.09,230.00 311.77,220.00 311.77,200.00 329.09,190.00 346.41,200.00" fill="#cfaac9" stroke="#cfaac9" stroke-width="1"/>
<polygon points="381.05,220.00 363.73,230.00 346.41,220.00 346.41,200.00 363.73,190.00 381.05,200.00" fill="#d3b0d0" stroke="#d3b0d0" stroke-width="1"/>
<polygon points="415.69,220.00 398.37,230.00 381.05,220.00 381.05,200.00 398.37,190.00 415.69,200.00" fill="#d27cb0" stroke="#d27cb0" stroke-width="1"/>
<polygon points="450.33,220.00 433.01,230.00 415.69,220.00 415.69,200.00 433.01,190.00 450.33,200.00" fill="#c86ca9" stroke="#c86ca9" stroke-width="1"/>
<polygon points="484.97,220.00 467.65,230.00 450.33,220.00 450.33,200.00 467.65,190.00 484.97,200.00" fill="#ac5a9f" stroke="#ac5a9f" stroke-width="1"/>
<polygon points="17.32,250.00 0.00,260.00 -17.32,250.00 -17.32,230.00 -0.00,220.00 17.32,230.00" fill="#055a57" stroke="#055a57" stroke-width="1"/>
<polygon points="51.96,250.00 34.64,260.00 17.32,250.00 17.32,230.00 34.64,220.00 51.96,230.00" fill="#046a61" stroke="#046a61" stroke-width="1"/>
<polygon points="86.60,250.00 69.28,260.00 51.96,250.00 51.96,230.00 69.28,220.00 86.60,230.00" fill="#0990a5" stroke="#0990a5" stroke-width="1"/>
<polygon points="121.24,250.00 103.92,260.00 86.60,250.00 86.60,230.00 103.92,220.00 121.24,230.00" fill="#0aa8a8" stroke="#0aa8a8" stroke-width="1"/>
<polygon points="155.88,250.00 138.56,260.00 121.24,250.00 121.24,230.00 138.56,220.00 155.88,230.00" fill="#4ac0cb" stroke="#4ac0cb" stroke-width="1"/>
<polygon points="190.53,250.00 173.21,260.00 155.88,250.00 155.88,230.00 173.21,220.00 190.53,230.00" fill="#5cbbc9" stroke="#5cbbc9" stroke-width="1"/>
<polygon points="225.17,250.00 207.85,260.00 190.53,250.00 190.53,230.00 207.85,220.00 225.17,230.00" fill="#2fb2c4" stroke="#2fb2c4" stroke-width="1"/>
<polygon points="259.81,250.00 242.49,260.00 225.17,250.00 225.17,230.00 242.49,220.00 259.81,230.00" fill="#29b1ad" stroke="#29b1ad" stroke-width="1"/>
<polygon points="294.45,250.00 277.13,260.00 259.81,250.00 259.81,230.00 277.13,220.00 294.45,230.00" fill="#30b4b1" stroke="#30b4b1" stroke-width="1"/>
<polygon points="329.09,250.00 311.77,260.00 294.45,250.00 294.45,230.00 311.77,220.00 329.09,230.00" fill="#12665f" stroke="#12665f" stroke-width="1"/>
<polygon points="363.73,250.00 346.41,260.00 329.09,250.00 329.09,230.00 346.41,220.00 363.73,230.00" fill="#2f3554" stroke="#2f3554" stroke-width="1"/>
<polygon points="398.37,250.00 381.05,260.00 363.73,250.00 363.73,230.00 381.05,220.00 398.37,230.00" fill="#74729a" stroke="#74729a" stroke-width="1"/>
<polygon points="433.01,250.00 415.69,260.00 398.37,250.00 398.37,230.00 415.69,220.00 433.01,230.00" fill="#b572ad" stroke="#b572ad" stroke-width="1"/>
<polygon points="467.65,250.00 450.33,260.00 433.01,250.00 433.01,230.00 450.33,220.00 467.65,230.00" fill="#764f9a" stroke="#764f9a" stroke-width="1"/>
<polygon points="34.64,280.00 17.32,290.00 -0.00,280.00 0.00,260.00 17.32,250.00 34.64,260.00" fill="#037660" stroke="#037660" stroke-width="1"/>
<polygon points="69.28,280.00 51.96,290.00 34.64,280.00 34.64,260.00 51.96,250.00 69.28,260.00" fill="#03a2a2" stroke="#03a2a2" stroke-width="1"/>
<polygon points="103.92,280.00 86.60,290.00 69.28,280.00 69.28,260.00 86.60,250.00 103.92,260.00" fill="#029fa1" stroke="#029fa1" stroke-width="1"/>
<polygon points="138.56,280.00 121.24,290.00 103.92,280.00 103.92,260.00 121.24,250.00 138.56,260.00" fill="#19acb3" stroke="#19acb3" stroke-width="1"/>
<polygon points="173.21,280.00 155.88,290.00 138.56,280.00 138.56,260.00 155.88,250.00 173.21,260.00" fill="#2eb5ae" stroke="#2eb5ae" stroke-width="1"/>
<polygon points="207.85,280.00 190.53,290.00 173.21,280.00 173.21,260.00 190.53,250.00 207.85,260.00" fill="#2db7ad" stroke="#2db7ad" stroke-width="1"/>
<polygon points="242.49,280.00 225.17,290.00 207.85,280.00 207.85,260.00 225.17,250.00 242.49,260.00" fill="#34b6b3" stroke="#34b6b3" stroke-width="1"/>
<polygon points="277.13,280.00 259.81,290.00 242.49,280.00 242.49,260.00 259.81,250.00 277.13,260.00" fill="#17a896" stroke="#17a896" stroke-width="1"/>
<polygon points="311.77,280.00 294.45,290.00 277.13,280.00 277.13,260.00 294.45,250.00 311.77,260.00" fill="#067373" stroke="#067373" stroke-width="1"/>
<polygon points="346.41,280.00 329.09,290.00 311.77,280.00 311.77,260.00 329.09,250.00 346.41,260.00" fill="#024b4f" stroke="#024b4f" stroke-width="1"/>
<polygon points="381.05,280.00 363.73,290.00 346.41,280.00 346.41,260.00 363.73,250.00 381.05,260.00" fill="#051217" stroke="#051217" stroke-width="1"/>
<polygon points="415.69,280.00 398.37,290.00 381.05,280.00 381.05,260.00 398.37,250.00 415.69,260.00" fill="#072b36" stroke="#072b36" stroke-width="1"/>
<polygon points="450.33,280.00 433.01,290.00 415.69,280.00 415.69,260.00 433.01,250.00 450.33,260.00" fill="#5b4173" stroke="#5b4173" stroke-width="1"/>
<polygon points="484.97,280.00 467.65,290.00 450.33,280.00 450.33,260.00 467.65,250.00 484.97,260.00" fill="#9a3784" stroke="#9a3784" stroke-width="1"/>
<polygon points="17.32,310.00 0.00,320.00 -17.32,310.00 -17.32,290.00 -0.00,280.00 17.32,290.00" fill="#03919e" stroke="#03919e" stroke-width="1"/>
<polygon points="51.96,310.00 34.64,320.00 17.32,310.00 17.32,290.00 34.64,280.00 51.96,290.00" fill="#029594" stroke="#029594" stroke-width="1"/>
<polygon points="86.60,310.00 69.28,320.00 51.96,310.00 51.96,290.00 69.28,280.00 86.60,290.00" fill="#089997" stroke="#089997" stroke-width="1"/>
<polygon points="121.24,310.00 103.92,320.00 86.60,310.00 86.60,290.00 103.92,280.00 121.24,290.00" fill="#13aca8" stroke="#13aca8" stroke-width="1"/>
<polygon points="155.88,310.00 138.56,320.00 121.24,310.00 121.24,290.00 138.56,280.00 155.88,290.00" fill="#038e75" stroke="#038e75" stroke-width="1"/>
<polygon points="190.53,310.00 173.21,320.00 155.88,310.00 155.88,290.00 173.21,280.00 190.53,290.00" fill="#0da494" stroke="#0da494" stroke-width="1"/>
<polygon points="225.17,310.00 207.85,320.00 190.53,310.00 190.53,290.00 207.85,280.00 225.17,290.00" fill="#01867c" stroke="#01867c" stroke-width="1"/>
<polygon points="259.81,310.00 242.49,320.00 225.17,310.00 225.17,290.00 242.49,280.00 259.81,290.00" fill="#03949b" stroke="#03949b" stroke-width="1"/>
<polygon points="294.45,310.00 277.13,320.00 259.81,310.00 259.81,290.00 277.13,280.00 294.45,290.00" fill="#019bb7" stroke="#019bb7" stroke-width="1"/>
<polygon points="329.09,310.00 311.77,320.00 294.45,310.00 294.45,290.00 311.77,280.00 329.09,290.00" fill="#046b63" stroke="#046b63" stroke-width="1"/>
<polygon points="363.73,310.00 346.41,320.00 329.09,310.00 329.09,290.00 346.41,280.00 363.73,290.00" fill="#013b33" stroke="#013b33" stroke-width="1"/>
<polygon points="398.37,310.00 381.05,320.00 363.73,310.00 363.73,290.00 381.05,280.00 398.37,290.00" fill="#050e15" stroke="#050e15" stroke-width="1"/>
<polygon points="433.01,310.00 415.69,320.00 398.37,310.00 398.37,290.00 415.69,280.00 433.01,290.00" fill="#042a33" stroke="#042a33" stroke-width="1"/>
<polygon points="467.65,310.00 450.33,320.00 433.01,310.00 433.01,290.00 450.33,280.00 467.65,290.00" fill="#5c3d74" stroke="#5c3d74" stroke-width="1"/>
<polygon points="34.64,340.00 17.32,350.00 -0.00,340.00 0.00,320.00 17.32,310.00 34.64,320.00" fill="#02795d" stroke="#02795d" stroke-width="1"/>
<polygon points="69.28,340.00 51.96,350.00 34.64,340.00 34.64,320.00 51.96,310.00 69.28,320.00" fill="#079b81" stroke="#079b81" stroke-width="1"/>
<polygon points="103.92,340.00 86.60,350.00 69.28,340.00 69.28,320.00 86.60,310.00 103.92,320.00" fill="#03907c" stroke="#03907c" stroke-width="1"/>
<polygon points="138.56,340.00 121.24,350.00 103.92,340.00 103.92,320.00 121.24,310.00 138.56,320.00" fill="#0da598" stroke="#0da598" stroke-width="1"/>
<polygon points="173.21,340.00 155.88,350.00 138.56,340.00 138.56,320.00 155.88,310.00 173.21,320.00" fill="#038582" stroke="#038582" stroke-width="1"/>
<polygon points="207.85,340.00 190.53,350.00 173.21,340.00 173.21,320.00 190.53,310.00 207.85,320.00" fill="#027177" stroke="#027177" stroke-width="1"/>
<polygon points="242.49,340.00 225.17,350.00 207.85,340.00 207.85,320.00 225.17,310.00 242.49,320.00" fill="#016a73" stroke="#016a73" stroke-width="1"/>
<polygon points="277.13,340.00 259.81,350.00 242.49,340.00 242.49,320.00 259.81,310.00 277.13,320.00" fill="#01594e" stroke="#01594e" stroke-width="1"/>
<polygon points="311.77,340.00 294.45,350.00 277.13,340.00 277.13,320.00 294.45,310.00 311.77,320.00" fill="#00554d" stroke="#00554d" stroke-width="1"/>
<polygon points="346.41,340.00 329.09,350.00 311.77,340.00 311.77,320.00 329.09,310.00 346.41,320.00" fill="#024233" stroke="#024233" stroke-width="1"/>
<polygon points="381.05,340.00 363.73,350.00 346.41,340.00 346.41,320.00 363.73,310.00 381.05,320.00" fill="#01342e" stroke="#01342e" stroke-width="1"/>
<polygon points="415.69,340.00 398.37,350.00 381.05,340.00 381.05,320.00 398.37,310.00 415.69,320.00" fill="#070c13" stroke="#070c13" stroke-width="1"/>
<polygon points="450.33,340.00 433.01,350.00 415.69,340.00 415.69,320.00 433.01,310.00 450.33,320.00" fill="#060d19" stroke="#060d19" stroke-width="1"/>
<polygon points="484.97,340.00 467.65,350.00 450.33,340.00 450.33,320.00 467.65,310.00 484.97,320.00" fill="#3a1631" stroke="#3a1631" stroke-width="1"/>
</svg>
