<svg xmlns="http://www.w3.org/2000/svg"
         width="474" height="356"
         viewBox="0 0 474 356">
<polygon points="25.98,15.00 0.00,30.00 -25.98,15.00 -25.98,-15.00 -0.00,-30.00 25.98,-15.00" fill="#270d13" stroke="#270d13" stroke-width="1"/>
<polygon points="77.94,15.00 51.96,30.00 25.98,15.00 25.98,-15.00 51.96,-30.00 77.94,-15.00" fill="#5f1b49" stroke="#5f1b49" stroke-width="1"/>
<polygon points="129.90,15.00 103.92,30.00 77.94,15.00 77.94,-15.00 103.92,-30.00 129.90,-15.00" fill="#bc4c2d" stroke="#bc4c2d" stroke-width="1"/>
<polygon points="181.87,15.00 155.88,30.00 129.90,15.00 129.90,-15.00 155.88,-30.00 181.87,-15.00" fill="#ee7430" stroke="#ee7430" stroke-width="1"/>
<polygon points="233.83,15.00 207.85,30.00 181.87,15.00 181.87,-15.00 207.85,-30.00 233.83,-15.00" fill="#f39335" stroke="#f39335" stroke-width="1"/>
<polygon points="285.79,15.00 259.81,30.00 233.83,15.00 233.83,-15.00 259.81,-30.00 285.79,-15.00" fill="#f18431" stroke="#f18431" stroke-width="1"/>
<polygon points="337.75,15.00 311.77,30.00 285.79,15.00 285.79,-15.00 311.77,-30.00 337.75,-15.00" fill="#ec612f" stroke="#ec612f" stroke-width="1"/>
<polygon points="389.71,15.00 363.73,30.00 337.75,15.00 337.75,-15.00 363.73,-30.00 389.71,-15.00" fill="#e34c2f" stroke="#e34c2f" stroke-width="1"/>
<polygon points="441.67,15.00 415.69,30.00 389.71,15.00 389.71,-15.00 415.69,-30.00 441.67,-15.00" fill="#d0342f" stroke="#d0342f" stroke-width="1"/>
<polygon points="493.63,15.00 467.65,30.00 441.67,15.00 441.67,-15.00 467.65,-30.00 493.63,-15.00" fill="#a82229" stroke="#a82229" stroke-width="1"/>
<polygon points="51.96,60.00 25.98,75.00 -0.00,60.00 0.00,30.00 25.98,15.00 51.96,30.00" fill="#2d2b64" stroke="#2d2b64" stroke-width="1"/>
<polygon points="103.92,60.00 77.94,75.00 51.96,60.00 51.96,30.00 77.94,15.00 103.92,30.00" fill="#2b194c" stroke="#2b194c" stroke-width="1"/>
<polygon points="155.88,60.00 129.90,75.00 103.92,60.00 103.92,30.00 129.90,15.00 155.88,30.00" fill="#e36531" stroke="#e36531" stroke-width="1"/>
<polygon points="207.85,60.00 181.87,75.00 155.88,60.00 155.88,30.00 181.87,15.00 207.85,30.00" fill="#ed7030" stroke="#ed7030" stroke-width="1"/>
<polygon points="259.81,60.00 233.83,75.00 207.85,60.00 207.85,30.00 233.83,15.00 259.81,30.00" fill="#f18d36" stroke="#f18d36" stroke-width="1"/>
<polygon points="311.77,60.00 285.79,75.00 259.81,60.00 259.81,30.00 285.79,15.00 311.77,30.00" fill="#ed733b" stroke="#ed733b" stroke-width="1"/>
<polygon points="363.73,60.00 337.75,75.00 311.77,60.00 311.77,30.00 337.75,15.00 363.73,30.00" fill="#e34a2d" stroke="#e34a2d" stroke-width="1"/>
<polygon points="415.69,60.00 389.71,75.00 363.73,60.00 363.73,30.00 389.71,15.00 415.69,30.00" fill="#dc422e" stroke="#dc422e" stroke-width="1"/>
<polygon points="467.65,60.00 441.67,75.00 415.69,60.00 415.69,30.00 441.67,15.00 467.65,30.00" fill="#c42a2c" stroke="#c42a2c" stroke-width="1"/>
<polygon points="25.98,105.00 0.00,120.00 -25.98,105.00 -25.98,75.00 -0.00,60.00 25.98,75.00" fill="#11547b" stroke="#11547b" stroke-width="1"/>
<polygon points="77.94,105.00 51.96,120.00 25.98,105.00 25.98,75.00 51.96,60.00 77.94,75.00" fill="#224f93" stroke="#224f93" stroke-width="1"/>
<polygon points="129.90,105.00 103.92,120.00 77.94,105.00 77.94,75.00 103.92,60.00 129.90,75.00" fill="#221536" stroke="#221536" stroke-width="1"/>
<polygon points="181.87,105.00 155.88,120.00 129.90,105.00 129.90,75.00 155.88,60.00 181.87,75.00" fill="#c35236" stroke="#c35236" stroke-width="1"/>
<polygon points="233.83,105.00 207.85,120.00 181.87,105.00 181.87,75.00 207.85,60.00 233.83,75.00" fill="#e66c49" stroke="#e66c49" stroke-width="1"/>
<polygon points="285.79,105.00 259.81,120.00 233.83,105.00 233.83,75.00 259.81,60.00 285.79,75.00" fill="#ec723e" stroke="#ec723e" stroke-width="1"/>
<polygon points="337.75,105.00 311.77,120.00 285.79,105.00 285.79,75.00 311.77,60.00 337.75,75.00" fill="#eb6a41" stroke="#eb6a41" stroke-width="1"/>
<polygon points="389.71,105.00 363.73,120.00 337.75,105.00 337.75,75.00 363.73,60.00 389.71,75.00" fill="#ec6c2f" stroke="#ec6c2f" stroke-width="1"/>
<polygon points="441.67,105.00 415.69,120.00 389.71,105.00 389.71,75.00 415.69,60.00 441.67,75.00" fill="#eb642f" stroke="#eb642f" stroke-width="1"/>
<polygon points="493.63,105.00 467.65,120.00 441.67,105.00 441.67,75.00 467.65,60.00 493.63,75.00" fill="#e8512f" stroke="#e8512f" stroke-width="1"/>
<polygon points="51.96,150.00 25.98,165.00 -0.00,150.00 0.00,120.00 25.98,105.00 51.96,120.00" fill="#5290bb" stroke="#5290bb" stroke-width="1"/>
<polygon points="103.92,150.00 77.94,165.00 51.96,150.00 51.96,120.00 77.94,105.00 103.92,120.00" fill="#395880" stroke="#395880" stroke-width="1"/>
<polygon points="155.88,150.00 129.90,165.00 103.92,150.00 103.92,120.00 129.90,105.00 155.88,120.00" fill="#2b2f75" stroke="#2b2f75" stroke-width="1"/>
<polygon points="207.85,150.00 181.87,165.00 155.88,150.00 155.88,120.00 181.87,105.00 207.85,120.00" fill="#65438e" stroke="#65438e" stroke-width="1"/>
<polygon points="259.81,150.00 233.83,165.00 207.85,150.00 207.85,120.00 233.83,105.00 259.81,120.00" fill="#d66698" stroke="#d66698" stroke-width="1"/>
<polygon points="311.77,150.00 285.79,165.00 259.81,150.00 259.81,120.00 285.79,105.00 311.77,120.00" fill="#eb7567" stroke="#eb7567" stroke-width="1"/>
<polygon points="363.73,150.00 337.75,165.00 311.77,150.00 311.77,120.00 337.75,105.00 363.73,120.00" fill="#ea6b3b" stroke="#ea6b3b" stroke-width="1"/>
<polygon points="415.69,150.00 389.71,165.00 363.73,150.00 363.73,120.00 389.71,105.00 415.69,120.00" fill="#ef7f35" stroke="#ef7f35" stroke-width="1"/>
<polygon points="467.65,150.00 441.67,165.00 415.69,150.00 415.69,120.00 441.67,105.00 467.65,120.00" fill="#ed7133" stroke="#ed7133" stroke-width="1"/>
<polygon points="25.98,195.00 0.00,210.00 -25.98,195.00 -25.98,165.00 -0.00,150.00 25.98,165.00" fill="#3a5e7b" stroke="#3a5e7b" stroke-width="1"/>
<polygon points="77.94,195.00 51.96,210.00 25.98,195.00 25.98,165.00 51.96,150.00 77.94,165.00" fill="#243d6a" stroke="#243d6a" stroke-width="1"/>
<polygon points="129.90,195.00 103.92,210.00 77.94,195.00 77.94,165.00 103.92,150.00 129.90,165.00" fill="#796099" stroke="#796099" stroke-width="1"/>
<polygon points="181.87,195.00 155.88,210.00 129.90,195.00 129.90,165.00 155.88,150.00 181.87,165.00" fill="#bf94c2" stroke="#bf94c2" stroke-width="1"/>
<polygon points="233.83,195.00 207.85,210.00 181.87,195.00 181.87,165.00 207.85,150.00 233.83,165.00" fill="#75488f" stroke="#75488f" stroke-width="1"/>
<polygon points="285.79,195.00 259.81,210.00 233.83,195.00 233.83,165.00 259.81,150.00 285.79,165.00" fill="#da90bb" stroke="#da90bb" stroke-width="1"/>
<polygon points="337.75,195.00 311.77,210.00 285.79,195.00 285.79,165.00 311.77,150.00 337.75,165.00" fill="#e992a0" stroke="#e992a0" stroke-width="1"/>
<polygon points="389.71,195.00 363.73,210.00 337.75,195.00 337.75,165.00 363.73,150.00 389.71,165.00" fill="#ea9487" stroke="#ea9487" stroke-width="1"/>
<polygon points="441.67,195.00 415.69,210.00 389.71,195.00 389.71,165.00 415.69,150.00 441.67,165.00" fill="#e07f9a" stroke="#e07f9a" stroke-width="1"/>
<polygon points="493.63,195.00 467.65,210.00 441.67,195.00 441.67,165.00 467.65,150.00 493.63,165.00" fill="#c669a6" stroke="#c669a6" stroke-width="1"/>
<polygon points="51.96,240.00 25.98,255.00 -0.00,240.00 0.00,210.00 25.98,195.00 51.96,210.00" fill="#043931" stroke="#043931" stroke-width="1"/>
<polygon points="103.92,240.00 77.94,255.00 51.96,240.00 51.96,210.00 77.94,195.00 103.92,210.00" fill="#0e6388" stroke="#0e6388" stroke-width="1"/>
<polygon points="155.88,240.00 129.90,255.00 103.92,240.00 103.92,210.00 129.90,195.00 155.88,210.00" fill="#355b84" stroke="#355b84" stroke-width="1"/>
<polygon points="207.85,240.00 181.87,255.00 155.88,240.00 155.88,210.00 181.87,195.00 207.85,210.00" fill="#8d79a8" stroke="#8d79a8" stroke-width="1"/>
<polygon points="259.81,240.00 233.83,255.00 207.85,240.00 207.85,210.00 233.83,195.00 259.81,210.00" fill="#a8c3d4" stroke="#a8c3d4" stroke-width="1"/>
<polygon points="311.77,240.00 285.79,255.00 259.81,240.00 259.81,210.00 285.79,195.00 311.77,210.00" fill="#22999e" stroke="#22999e" stroke-width="1"/>
<polygon points="363.73,240.00 337.75,255.00 311.77,240.00 311.77,210.00 337.75,195.00 363.73,210.00" fill="#9590b1" stroke="#9590b1" stroke-width="1"/>
<polygon points="415.69,240.00 389.71,255.00 363.73,240.00 363.73,210.00 389.71,195.00 415.69,210.00" fill="#c27ead" stroke="#c27ead" stroke-width="1"/>
<polygon points="467.65,240.00 441.67,255.00 415.69,240.00 415.69,210.00 441.67,195.00 467.65,210.00" fill="#9d60a3" stroke="#9d60a3" stroke-width="1"/>
<polygon points="25.98,285.00 0.00,300.00 -25.98,285.00 -25.98,255.00 -0.00,240.00 25.98,255.00" fill="#03655a" stroke="#03655a" stroke-width="1"/>
<polygon points="77.94,285.00 51.96,300.00 25.98,285.00 25.98,255.00 51.96,240.00 77.94,255.00" fill="#03a1a4" stroke="#03a1a4" stroke-width="1"/>
<polygon points="129.90,285.00 103.92,300.00 77.94,285.00 77.94,255.00 103.92,240.00 129.90,255.00" fill="#0ca5a9" stroke="#0ca5a9" stroke-width="1"/>
<polygon points="181.87,285.00 155.88,300.00 129.90,285.00 129.90,255.00 155.88,240.00 181.87,255.00" fill="#30b5ae" stroke="#30b5ae" stroke-width="1"/>
<polygon points="233.83,285.00 207.85,300.00 181.87,285.00 181.87,255.00 207.85,240.00 233.83,255.00" fill="#2cb8b1" stroke="#2cb8b1" stroke-width="1"/>
<polygon points="285.79,285.00 259.81,300.00 233.83,285.00 233.83,255.00 259.81,240.00 285.79,255.00" fill="#14a799" stroke="#14a799" stroke-width="1"/>
<polygon points="337.75,285.00 311.77,300.00 285.79,285.00 285.79,255.00 311.77,240.00 337.75,255.00" fill="#035e61" stroke="#035e61" stroke-width="1"/>
<polygon points="389.71,285.00 363.73,300.00 337.75,285.00 337.75,255.00 363.73,240.00 389.71,255.00" fill="#05161a" stroke="#05161a" stroke-width="1"/>
<polygon points="441.67,285.00 415.69,300.00 389.71,285.00 389.71,255.00 415.69,240.00 441.67,255.00" fill="#2d3550" stroke="#2d3550" stroke-width="1"/>
<polygon points="493.63,285.00 467.65,300.00 441.67,285.00 441.67,255.00 467.65,240.00 493.63,255.00" fill="#9b418a" stroke="#9b418a" stroke-width="1"/>
<polygon points="51.96,330.00 25.98,345.00 -0.00,330.00 0.00,300.00 25.98,285.00 51.96,300.00" fill="#02866f" stroke="#02866f" stroke-width="1"/>
<polygon points="103.92,330.00 77.94,345.00 51.96,330.00 51.96,300.00 77.94,285.00 103.92,300.00" fill="#04906f" stroke="#04906f" stroke-width="1"/>
<polygon points="155.88,330.00 129.90,345.00 103.92,330.00 103.92,300.00 129.90,285.00 155.88,300.00" fill="#068c7a" stroke="#068c7a" stroke-width="1"/>
<polygon points="207.85,330.00 181.87,345.00 155.88,330.00 155.88,300.00 181.87,285.00 207.85,300.00" fill="#028785" stroke="#028785" stroke-width="1"/>
<polygon points="259.81,330.00 233.83,345.00 207.85,330.00 207.85,300.00 233.83,285.00 259.81,300.00" fill="#028b9f" stroke="#028b9f" stroke-width="1"/>
<polygon points="311.77,330.00 285.79,345.00 259.81,330.00 259.81,300.00 285.79,285.00 311.77,300.00" fill="#027272" stroke="#027272" stroke-width="1"/>
<polygon points="363.73,330.00 337.75,345.00 311.77,330.00 311.77,300.00 337.75,285.00 363.73,300.00" fill="#014236" stroke="#014236" stroke-width="1"/>
<polygon points="415.69,330.00 389.71,345.00 363.73,330.00 363.73,300.00 389.71,285.00 415.69,300.00" fill="#060e14" stroke="#060e14" stroke-width="1"/>
<polygon points="467.65,330.00 441.67,345.00 415.69,330.00 415.69,300.00 441.67,285.00 467.65,300.00" fill="#1e223d" stroke="#1e223d" stroke-width="1"/>
</svg>
